<svg xmlns="http://www.w3.org/2000/svg" aria-hidden="true" style="position:absolute;width:0;height:0;overflow:hidden">
  <defs>
    <symbol id="icon-email-black-18dp-1-1" viewBox="0 0 24 32">
      <path d="M20 8h-16c-1.1 0-1.989 0.9-1.989 2l-0.011 12c0 1.1 0.9 2 2 2h16c1.1 0 2-0.9 2-2v-12c0-1.1-0.9-2-2-2zM19.6 12.251l-7.069 4.419c-0.151 0.094-0.334 0.15-0.531 0.15s-0.38-0.056-0.535-0.153l0.004 0.002-7.069-4.419c-0.252-0.15-0.418-0.422-0.418-0.731 0-0.469 0.38-0.849 0.849-0.849 0.174 0 0.337 0.053 0.471 0.143l6.697 4.187 6.7-4.191c0.132-0.088 0.294-0.141 0.468-0.141 0.469 0 0.849 0.38 0.849 0.849 0 0.31-0.166 0.581-0.414 0.729l-0.004 0.002z"></path>
   </symbol>
    <symbol id="icon-phone-black-18dp-1" viewBox="0 0 24 32">
      <path d="m19.635 18.487-2.451-.28a1.92 1.92 0 0 0-1.582.55l-1.775 1.775a14.514 14.514 0 0 1-6.359-6.359l1.785-1.785c.415-.415.618-.994.55-1.582l-.28-2.432a1.931 1.931 0 0 0-1.92-1.708H5.934c-1.09 0-1.997.907-1.93 1.997.511 8.24 7.102 14.821 15.332 15.332 1.09.068 1.997-.839 1.997-1.93v-1.669a1.913 1.913 0 0 0-1.698-1.911z"/>
    </symbol>
    <symbol id="icon-person-black-18dp-1" viewBox="0 0 32 32">
      <path d="M16 16c2.947 0 5.333-2.387 5.333-5.333S18.946 5.334 16 5.334c-2.947 0-5.333 2.387-5.333 5.333S13.054 16 16 16zm0 2.667c-3.56 0-10.667 1.787-10.667 5.333v1.333c0 .733.6 1.333 1.333 1.333h18.667c.733 0 1.333-.6 1.333-1.333V24c0-3.547-7.107-5.333-10.667-5.333z"/>
    </symbol>
   <symbol id="icon-Frame-3-1" viewBox="0 0 32 32">
     <path fill="#fff" style="fill: var(--color1, #fff)" d="M32 2.667l-32 15 10.227 3.156 15.773-12.323-11.997 13.488 0.009 0.004-0.012-0.004v7.345l5.735-5.576 7.267 2.243 4.999-23.333z"></path>
    </symbol>
    <symbol id="icon-close-black-18dp-2-1-1" viewBox="0 0 32 32">
      <path d="M32 3.224l-3.224-3.224-12.776 12.776-12.776-12.776-3.224 3.224 12.776 12.776-12.776 12.776 3.224 3.224 12.776-12.776 12.776 12.776 3.224-3.224-12.776-12.776 12.776-12.776z"></path>
    </symbol>
   <symbol id="icon-click" viewBox="0 0 40 32">
     <path fill="#f4f4fd" style="fill: var(--color1, #f4f4fd)" d="M33.84 1.96c0.639-0.554 1.478-0.892 2.396-0.892 0.015 0 0.031 0 0.046 0l-0.002-0c0.001 0 0.002 0 0.003 0 0.932 0 1.783 0.349 2.429 0.923l-0.004-0.003c0.618 0.55 1.016 1.338 1.048 2.218l0 0.006c0 0.020 0.001 0.043 0.001 0.067 0 0.861-0.352 1.64-0.92 2.201l-0 0-18.62 21.496c-0.317 0.314-0.694 0.568-1.113 0.743l-0.023 0.009c-0.419 0.176-0.907 0.279-1.418 0.279-0.955 0-1.827-0.358-2.489-0.946l0.004 0.003-12.348-11.4c-0.335-0.287-0.608-0.635-0.804-1.029l-0.009-0.019c-0.194-0.388-0.308-0.845-0.308-1.329 0-0.903 0.396-1.714 1.024-2.268l0.003-0.003c0.328-0.301 0.716-0.543 1.144-0.704l0.024-0.008c0.39-0.15 0.841-0.236 1.312-0.236 0.514 0 1.003 0.103 1.449 0.289l-0.025-0.009c0.441 0.183 0.819 0.436 1.136 0.748l-0-0 9.772 9.016 16.208-19.060c0.029-0.033 0.059-0.063 0.091-0.091l0.001-0.001h-0.008z"></path>
   </symbol>
  </defs>
</svg>
